<?xml version="1.0" encoding="UTF-8" standalone="no"?>
<!-- Created with Inkscape (http://www.inkscape.org/) -->

<svg
   xmlns:dc="http://purl.org/dc/elements/1.1/"
   xmlns:cc="http://creativecommons.org/ns#"
   xmlns:rdf="http://www.w3.org/1999/02/22-rdf-syntax-ns#"
   xmlns:svg="http://www.w3.org/2000/svg"
   xmlns="http://www.w3.org/2000/svg"
   xmlns:sodipodi="http://sodipodi.sourceforge.net/DTD/sodipodi-0.dtd"
   xmlns:inkscape="http://www.inkscape.org/namespaces/inkscape"
   width="495.23862"
   height="800"
   id="svg3985"
   version="1.1"
   inkscape:version="0.48.4 r9939"
   sodipodi:docname="Пушкин силуэт.svg">
  <defs
     id="defs3987" />
  <sodipodi:namedview
     id="base"
     pagecolor="#ffffff"
     bordercolor="#666666"
     borderopacity="1.0"
     inkscape:pageopacity="0.0"
     inkscape:pageshadow="2"
     inkscape:zoom="0.35"
     inkscape:cx="-519.2656"
     inkscape:cy="872.7791"
     inkscape:document-units="px"
     inkscape:current-layer="layer1"
     showgrid="false"
     fit-margin-top="0"
     fit-margin-left="0"
     fit-margin-right="0"
     fit-margin-bottom="0"
     inkscape:window-width="1920"
     inkscape:window-height="1018"
     inkscape:window-x="-8"
     inkscape:window-y="-8"
     inkscape:window-maximized="1" />
  <metadata
     id="metadata3990">
    <rdf:RDF>
      <cc:Work
         rdf:about="">
        <dc:format>image/svg+xml</dc:format>
        <dc:type
           rdf:resource="http://purl.org/dc/dcmitype/StillImage" />
        <dc:title />
      </cc:Work>
    </rdf:RDF>
  </metadata>
  <g
     inkscape:label="Layer 1"
     inkscape:groupmode="layer"
     id="layer1"
     transform="translate(-299.97989,-605.14133)">
    <path
       inkscape:connector-curvature="0"
       style="fill:#000000;stroke:none"
       d="m 644.9481,605.15428 c -1.59185,0.14041 -3.13206,1.01297 -4.7449,1.07432 -2.48841,0.0947 -4.99222,-1.49854 -7.40829,-0.89527 -1.42799,0.35657 -3.85688,1.07552 -3.62583,2.52913 0.22754,1.43149 3.02822,0.37398 4.16299,1.27575 1.41681,1.12591 2.94471,2.90595 2.70821,4.70015 -0.0892,0.67625 -1.45484,1.43242 -1.45484,1.43242 0,0 -0.37214,-2.31091 -1.25337,-2.88723 -0.555,-0.36299 -1.41696,-0.33031 -1.992,0 -1.45263,0.83433 -1.30702,3.19629 -2.52909,4.34204 -1.18018,1.10649 -3.12205,1.10857 -4.34204,2.17102 -2.81228,2.44916 -6.33397,9.22123 -6.33397,9.22123 -1.30294,-0.0922 -2.37897,0.42187 -3.44685,0.91765 -4.11657,1.91142 -3.34335,7.57563 -7.05018,10.47461 0,0 -3.54145,-0.39257 -5.05825,0.35811 -2.45009,1.21257 -4.77413,3.49769 -5.41636,6.15495 -0.92062,3.8092 2.88727,11.39225 2.88727,11.39225 -1.7303,4.75818 -1.30279,4.81802 1.63383,9.42268 -0.58615,2.93072 -0.17068,5.08253 1.07431,7.94548 -4.99286,2.07847 -5.43698,15.12527 2.8872,16.0924 1.06723,3.55723 1.92711,4.63643 5.61783,6.15495 -5.23745,4.16619 -4.30967,12.16148 4.8792,11.75036 -0.15005,3.5049 2.21445,3.56791 5.4387,5.9759 l -1.32048,4.36442 c -1.44374,0.38412 -3.1368,-0.0127 -4.83444,-0.38049 -4.8595,-2.08265 -4.91608,-2.89069 -8.25886,1.0967 -1.2914,1.38015 -2.79215,2.78164 -5.66252,4.31966 -5.67348,0.93416 -7.15224,4.84304 -8.86313,9.22124 -0.55112,0.90432 0.82458,1.61384 2.8872,1.27575 1.87225,-0.30682 3.29536,-2.44565 5.77453,-3.06628 2.9687,-0.74327 6.1252,0.45057 9.06453,2.70818 1.1738,1.83142 -0.16315,3.30175 -1.81287,3.80487 -3.30891,1.009 -2.97594,1.30319 -3.2678,4.8792 0,0 -1.6707,-0.77035 -2.52909,-1.0967 -1.78208,-0.67755 -3.87721,-1.17265 -5.77446,-0.98479 -2.41858,0.23948 -3.88237,1.56336 -5.97586,2.7977 -3.51388,2.07157 -0.62232,3.74605 -1.72342,4.70015 -1.13914,0.98702 -2.93118,0.68105 -4.43157,0.53716 -2.362,-0.22652 -4.02211,-2.71061 -6.33404,-3.24534 -2.8786,-0.66588 -4.92991,-0.38026 -7.76639,0.44763 -6.41068,2.25255 -9.93452,7.14328 -5.61776,11.12368 1.91458,1.52563 5.07945,0.61329 7.52023,0.80574 3.78683,0.2986 7.37971,-0.35238 11.12364,0.29096 2.72619,0.46845 7.76647,2.88723 7.76647,2.88723 l -10.67608,7.22927 c -3.35753,-1.67877 -6.1393,-4.03886 -9.4674,-5.77446 -4.57008,-2.20404 -15.44734,4.91509 -20.18831,14.10043 -3.74909,0.8822 -4.4865,2.62395 -6.15492,6.33401 -4.94007,1.85253 -7.7621,4.29674 -10.1165,9.22123 l -2.52916,3.06629 c -4.9592,0 -8.43999,0.82921 -12.30983,4.34204 -7.2003,0.35123 -13.25903,0.25816 -19.53921,4.34204 l -3.98394,0.91764 c -5.12464,0.56941 -8.71014,1.17921 -12.82464,4.70015 -2.73643,-1.17271 -4.92396,-1.20588 -7.96787,-0.55954 -3.21572,-2.45893 -4.5251,-2.5333 -8.68407,-1.25337 -5.00038,-2.08342 -10.13735,-1.40926 -15.55528,-1.36528 -1.58254,-1.94774 -3.28899,-1.87372 -5.86399,-2.0815 -4.72886,-4.08401 -12.04383,-0.85147 -17.90531,-1.79053 -4.31082,-2.05276 -8.40139,-2.52371 -13.2947,-2.37245 -8.07057,-2.9054 -16.04273,-5.99184 -24.50793,-7.58738 0,0 -1.5009,1.38603 -3.35718,3.26772 l -11.57134,-5.43874 c 0,0 -3.03323,-3.55576 -5.05825,-4.61062 -2.79545,-1.4562 -6.131,-1.5844 -9.24359,-2.08149 -3.76785,-0.60173 -11.39229,-1.07432 -11.39229,-1.07432 l -6.69207,-1.81291 c -3.69194,5.88677 0.1032,9.4029 6.55778,9.82554 1.85277,0.12131 3.56137,1.61005 5.39394,1.56671 l -0.91761,4.5211 c -5.42302,2.25958 -10.34182,4.71044 -14.81665,8.68407 0,0 -3.44319,0.0698 -5.08059,-0.3581 -1.09609,-0.28637 -2.1298,-0.81757 -3.06632,-1.45481 -2.32734,-1.58357 -6.15492,-5.79684 -6.15492,-5.79684 0,0 -0.20391,-2.14645 -0.71621,-3.06629 -1.96486,-3.45831 -4.98391,-3.99922 -8.95266,-3.44677 0.5151,0.51116 0.53344,2.94038 2.97672,5.25968 1.15798,3.33765 2.30069,6.32773 4.70015,9.04219 l -4.70015,-3.98394 -3.06625,-4.25251 c -3.65075,-3.43595 -4.47009,-4.25301 -9.57934,-2.61865 l 3.78246,5.79685 c 1.24299,1.89406 0.57161,2.4008 3.44678,5.59541 l 3.24537,3.62582 c 0,0 -3.86318,-2.39179 -5.77454,-3.62582 -4.3999,-2.85029 -4.80421,-4.48629 -9.95979,-1.99197 l 8.14692,8.50502 c -1.69134,1.12754 -2.00962,1.80591 -2.17099,3.98394 l 6.87113,0.71621 c 0,0 4.59093,0.3888 8.32597,2.70818 1.94896,1.21028 4.57803,0.45294 6.87113,0.38049 2.60866,-0.0824 7.40836,0 7.40836,0 0,0 4.10297,0.43567 6.15499,0.3581 6.74808,-0.25508 13.37964,-1.85956 20.0763,-2.73056 2.89206,-0.37615 8.68407,-1.07432 8.68407,-1.07432 l 5.21489,4.61062 c -0.41662,5.05547 0,10.19459 0.82816,15.19714 0.38639,2.32424 1.992,6.78163 1.992,6.78163 l 4.70007,0.44764 0.6491,3.8944 c 0,0 20.04651,-4.75418 30.19288,-4.16298 10.42497,0.60744 17.1573,4.93267 27.12655,8.37073 10.24427,3.53304 25.90304,6.91079 34.3782,7.54261 9.37916,0.69925 18.8361,-0.58442 28.22321,0 14.5909,1.07692 22.45964,5.8083 38.69783,-2.17102 0,0 -5.45017,24.75825 -9.7584,36.90733 -5.0286,14.18178 -11.83878,27.70914 -16.65194,41.96558 -4.56686,13.52736 -8.17757,27.3587 -11.57127,41.22699 -2.51828,10.291 -2.9937,21.11742 -6.5131,31.11052 -4.94387,14.0386 -14.74524,25.9683 -20.25535,39.7945 -6.61035,16.5871 -8.45926,34.8302 -15.19717,51.3659 -5.84143,14.336 -21.71012,41.0479 -21.71012,41.0479 0,0 15.23606,4.6395 22.80686,7.0726 7.62344,2.4501 15.29364,4.7577 22.78451,7.5874 10.41251,3.9334 20.25685,9.3198 30.75238,13.0261 8.27748,2.9231 16.61999,6.0117 25.3136,7.2293 1.67199,0.2341 3.37737,-0.1562 5.05832,0 5.86327,0.545 17.36801,3.2677 17.36815,3.2677 6.0964,18.0797 -5.87724,30.2421 7.96787,100.5607 1.62423,11.9146 3.09432,23.8507 4.34197,35.8106 2.00976,19.2621 5.05832,57.879 5.05832,57.879 l 5.41628,-1.0968 c -3.06868,5.5241 -2.15802,13.831 -19.89724,22.807 l -1.43243,9.9374 69.45028,0 c 3.71048,-0.6184 2.0735,-14.6839 0,-21.5311 -1.08406,-3.5795 -0.21107,-7.4762 -0.35811,-11.2133 -0.20448,-5.1865 -0.73863,-15.5552 -0.73863,-15.5552 2.12751,-27.8943 5.1727,-47.8118 -2.52916,-75.2246 0,0 2.33793,-14.9102 2.90968,-22.4265 0.77774,-10.2226 1.3843,-20.5219 0.71622,-30.7523 -0.46139,-7.0624 -2.72347,-13.9376 -3.2678,-20.994 -0.15763,-2.0439 -0.0927,-4.0849 0,-6.1326 0.21136,-4.6567 1.27579,-13.9438 1.27579,-13.9438 l 15.37616,-1.2533 3.62589,-2.171 10.11651,0 c 0,0 10.8297,23.0321 11.92938,35.4525 1.45033,16.3812 4.43751,32.0926 8.32597,47.74 4.30952,17.3417 7.7853,34.893 12.66801,52.0821 6.27251,22.0817 21.32974,65.4886 21.32974,65.4886 l 8.68407,-1.4547 c -3.24293,10.0525 -4.4494,11.3587 -1.43242,21.8892 l 28.58132,0 25.67178,0 c 0,0 2.18223,-6.0919 1.09666,-8.8631 -1.49788,-3.824 -7.02712,-4.6322 -9.42263,-7.9679 -3.82064,-5.3197 -7.22931,-18.2634 -7.22931,-18.2634 -6.68069,-16.8689 -6.61795,-35.5365 -7.58741,-53.716 -0.58959,-8.6263 0.42479,-18.0214 -3.62575,-25.8507 0.11738,-9.8561 0.45887,-19.2402 -2.70822,-28.7605 -0.73949,-14.1992 -1.6263,-28.3694 -3.26772,-42.5027 -2.80863,-17.3344 -2.23702,-39.4338 -9.04218,-58.4385 13.42562,-1.1188 22.17444,1.9975 19.89724,-13.7423 l 3.80495,-4.8792 c -4.08406,-33.6906 -5.74517,-64.6387 -11.03418,-101.8365 0,-4.7837 0.46654,-9.4233 -1.45485,-13.9213 -1.05849,-24.0344 -5.91935,-46.98482 -11.57127,-70.36792 l -0.89526,-13.74232 c -2.06241,-19.20652 -1.71813,-28.89084 -11.9518,-45.74808 0,0 3.09583,-7.34755 3.98393,-11.2132 0.97792,-4.25673 0.21794,-8.83734 1.45477,-13.02612 0.7256,-2.45657 3.42443,-6.87116 3.42443,-6.87116 l 1.27579,9.93745 c 0.49941,5.66294 -0.13981,11.56214 3.42435,16.27145 l 0.2014,4.90158 c -1.08499,13.45064 0.26722,28.28163 3.96159,42.32368 0.88252,5.8838 2.00704,11.39207 4.70014,16.80862 -1.47847,5.49136 -0.77171,7.93068 1.45478,13.56327 0,0 -1.51494,11.6795 -1.45478,17.54721 0.0394,3.81825 -1.42612,8.60735 1.1862,11.39226 3.8765,4.13228 11.21517,9.90178 16.27148,12.64558 l 1.00714,2.1934 c -1.46773,0.352 -1.79697,0.414 -2.35003,0.5372 l 1.99193,1.9024 c -0.96467,-0.2402 -1.94516,0.4677 -2.90955,0.8953 0.77086,1.3867 2.79116,2.7763 4.99108,4.163 -1.91974,1.0281 -2.29439,2.5807 -2.82009,4.0735 l 9.95979,0.5371 c 0.3377,1.2179 -0.89168,2.1054 2.52916,3.9839 0,0 5.42596,-4.6115 6.69208,-4.521 4.42519,0.2575 5.97106,-4.2938 9.04218,-7.0503 -0.16516,-3.0464 1.99881,-4.0156 3.6259,-6.4235 -0.97161,-10.9375 0.16366,-13.65775 -2.6411,-20.61349 l -0.46998,-1.47719 c 0.59739,-1.79774 0.94003,-2.95437 0.94003,-2.95437 l -12.48896,-21.35209 c 2.8314,-5.97741 3.9194,-8.15697 2.52909,-14.9957 1.08327,-4.332 1.409,-6.43303 -1.07432,-10.49699 2.22112,-11.33861 4.56743,-22.61001 5.05832,-34.19915 0.12491,-13.8854 0.27825,-27.19278 -3.80495,-40.68982 0.58257,-8.83251 1.90241,-17.40155 -0.71621,-26.02985 1.34942,-5.69737 1.94975,-10.26761 0.17905,-16.11479 0,0 0.83418,-1.27573 1.07432,-1.99196 0.91124,-2.7162 1.24571,-5.6179 1.27579,-8.48264 0.0951,-9.0555 -2.80118,-17.93692 -3.44677,-26.96988 -0.2708,-3.78911 0.29966,-7.62378 -0.17905,-11.39226 -0.90666,-7.13718 -2.67033,-14.56987 -5.95352,-20.9716 -2.61418,-5.09728 -5.33629,-10.19777 -10.31797,-13.02611 -3.35288,-1.9037 -7.59752,-2.67541 -11.39222,-1.99197 -3.64323,0.65616 -9.57935,5.61779 -9.57935,5.61779 l -17.90531,-1.81291 c -2.94808,-1.7068 -5.81171,-3.05053 -9.24358,-3.62583 -2.40383,-3.60543 -3.68556,-4.68492 -8.30363,-5.2373 -1.70552,-2.95631 -2.5596,-5.24367 -5.97593,-6.33401 -2.49464,-5.12836 -4.34813,-8.65383 -9.57935,-11.5713 -0.30181,-3.92468 -1.29061,-5.93363 -2.86485,-7.65453 2.87452,-3.41965 5.70421,-7.0133 5.57307,-10.98938 0,0 2.63373,-0.44849 3.62583,-1.25337 2.07966,-1.68724 3.91546,-4.20264 4.14056,-6.87117 0.20706,-2.45435 -2.70814,-6.87116 -2.70814,-6.87116 0,0 5.79867,1.30765 7.78881,-0.35811 2.08611,-1.74608 2.0208,-5.25539 1.81288,-7.96786 -0.213,-2.77958 -1.79576,-5.29662 -3.0886,-7.76643 -1.00821,-1.9259 -3.60348,-5.43874 -3.60348,-5.43874 0,0 2.91513,-5.81503 2.52917,-8.86313 -0.25469,-2.01063 -1.6556,-3.80422 -3.08874,-5.23731 -1.43307,-1.43309 -3.32566,-2.41537 -5.23724,-3.08866 -1.5521,-0.54669 -4.87927,-0.71622 -4.87927,-0.71622 0,0 1.41087,-2.58353 1.81295,-3.98393 0.25175,-0.87693 0.83088,-1.92787 0.35811,-2.70818 -0.73132,-1.20708 -2.57256,-1.46197 -3.98393,-1.4548 -1.0302,0.005 -2.8872,1.0967 -2.8872,1.0967 -3.48996,-6.28195 -3.92735,-8.78732 -11.03418,-11.03415 0,0 1.13355,-5.17374 0.17905,-7.78881 -0.68248,-1.86983 -1.64743,-4.02808 -3.44677,-4.8792 -1.47554,-0.69797 -3.32001,0.84112 -4.8792,0.3581 -2.21253,-0.68539 -3.16459,-3.79935 -5.41636,-4.34203 -2.63237,-0.6344 -5.2608,1.69237 -7.96786,1.63386 -1.49116,-0.0322 -2.91005,-0.65732 -4.34204,-1.07432 -2.01356,-0.58636 -3.88281,-1.86165 -5.97586,-1.99197 -0.2302,-0.0143 -0.44406,-0.02 -0.67153,0 z M 775.79126,1011.493 c -0.17204,4.868 -0.65319,5.8338 -4.83444,1.41 1.67114,-0.09 3.20684,-0.6045 4.83444,-1.41 z"
       id="path3971" />
  </g>
</svg>
